<mxfile host="app.diagrams.net" modified="2024-05-24T16:31:36.420Z" agent="Mozilla/5.0 (Windows NT 10.0; Win64; x64) AppleWebKit/537.36 (KHTML, like Gecko) Chrome/125.0.0.0 Safari/537.36" etag="C03f_yoKNq5BPIVhTEaf" version="24.4.7" type="google">
  <diagram name="Page-1" id="5f0bae14-7c28-e335-631c-24af17079c00">
    <mxGraphModel grid="1" page="1" gridSize="10" guides="1" tooltips="1" connect="1" arrows="1" fold="1" pageScale="1" pageWidth="1100" pageHeight="850" background="none" math="0" shadow="0">
      <root>
        <mxCell id="0" />
        <mxCell id="1" parent="0" />
        <mxCell id="39150e848f15840c-1" value="" style="verticalAlign=top;align=left;spacingTop=8;spacingLeft=2;spacingRight=12;shape=cube;size=10;direction=south;fontStyle=4;html=1;rounded=0;shadow=0;comic=0;labelBackgroundColor=none;strokeWidth=1;fontFamily=Verdana;fontSize=12" vertex="1" parent="1">
          <mxGeometry x="10" y="70" width="330" height="220" as="geometry" />
        </mxCell>
        <mxCell id="TDVyNpl9th57YyGW8d3d-1" value="&amp;lt;&amp;lt; execution Environment &amp;gt;&amp;gt;&lt;div&gt;web browser&lt;/div&gt;" style="verticalAlign=top;align=center;spacingTop=8;spacingLeft=2;spacingRight=12;shape=cube;size=10;direction=south;fontStyle=4;html=1;rounded=0;shadow=0;comic=0;labelBackgroundColor=none;strokeWidth=1;fontFamily=Verdana;fontSize=12" vertex="1" parent="1">
          <mxGeometry x="47.5" y="180" width="255" height="70" as="geometry" />
        </mxCell>
        <mxCell id="TDVyNpl9th57YyGW8d3d-2" value="&amp;lt;&amp;lt; device&amp;gt;&amp;gt;&lt;div&gt;Web Client&lt;/div&gt;" style="text;strokeColor=none;fillColor=none;html=1;align=center;verticalAlign=middle;whiteSpace=wrap;rounded=0;fontSize=16;" vertex="1" parent="1">
          <mxGeometry x="110" y="100" width="120" height="30" as="geometry" />
        </mxCell>
        <mxCell id="TDVyNpl9th57YyGW8d3d-3" value="" style="endArrow=none;html=1;rounded=0;fontSize=12;startSize=8;endSize=8;curved=1;entryX=0.545;entryY=1.004;entryDx=0;entryDy=0;entryPerimeter=0;" edge="1" parent="1">
          <mxGeometry width="50" height="50" relative="1" as="geometry">
            <mxPoint x="340" y="190" as="sourcePoint" />
            <mxPoint x="418.68000000000006" y="189.9000000000001" as="targetPoint" />
          </mxGeometry>
        </mxCell>
        <mxCell id="TDVyNpl9th57YyGW8d3d-5" value="" style="verticalAlign=top;align=left;spacingTop=8;spacingLeft=2;spacingRight=12;shape=cube;size=10;direction=south;fontStyle=4;html=1;rounded=0;shadow=0;comic=0;labelBackgroundColor=none;strokeWidth=1;fontFamily=Verdana;fontSize=12" vertex="1" parent="1">
          <mxGeometry x="750" y="130" width="330" height="220" as="geometry" />
        </mxCell>
        <mxCell id="TDVyNpl9th57YyGW8d3d-7" value="&amp;lt;&amp;lt; device&amp;gt;&amp;gt;&lt;div&gt;Web Server&lt;/div&gt;" style="text;strokeColor=none;fillColor=none;html=1;align=center;verticalAlign=middle;whiteSpace=wrap;rounded=0;fontSize=16;" vertex="1" parent="1">
          <mxGeometry x="850" y="160" width="120" height="30" as="geometry" />
        </mxCell>
        <mxCell id="TDVyNpl9th57YyGW8d3d-8" value="«component»&lt;br&gt;&lt;b&gt;Windows10&lt;/b&gt;" style="html=1;dropTarget=0;whiteSpace=wrap;" vertex="1" parent="1">
          <mxGeometry x="800" y="230" width="220" height="90" as="geometry" />
        </mxCell>
        <mxCell id="TDVyNpl9th57YyGW8d3d-9" value="" style="shape=module;jettyWidth=8;jettyHeight=4;" vertex="1" parent="TDVyNpl9th57YyGW8d3d-8">
          <mxGeometry x="1" width="20" height="20" relative="1" as="geometry">
            <mxPoint x="-27" y="7" as="offset" />
          </mxGeometry>
        </mxCell>
        <mxCell id="TDVyNpl9th57YyGW8d3d-10" value="" style="verticalAlign=top;align=left;spacingTop=8;spacingLeft=2;spacingRight=12;shape=cube;size=10;direction=south;fontStyle=4;html=1;rounded=0;shadow=0;comic=0;labelBackgroundColor=none;strokeWidth=1;fontFamily=Verdana;fontSize=12" vertex="1" parent="1">
          <mxGeometry x="360" y="400" width="330" height="220" as="geometry" />
        </mxCell>
        <mxCell id="TDVyNpl9th57YyGW8d3d-12" value="&amp;lt;&amp;lt; device&amp;gt;&amp;gt;&lt;div&gt;DataBase Server&lt;/div&gt;" style="text;strokeColor=none;fillColor=none;html=1;align=center;verticalAlign=middle;whiteSpace=wrap;rounded=0;fontSize=16;" vertex="1" parent="1">
          <mxGeometry x="460" y="430" width="140" height="30" as="geometry" />
        </mxCell>
        <mxCell id="TDVyNpl9th57YyGW8d3d-13" value="«component»&lt;br&gt;&lt;b&gt;Maria db&lt;/b&gt;" style="html=1;dropTarget=0;whiteSpace=wrap;" vertex="1" parent="1">
          <mxGeometry x="420" y="490" width="220" height="50" as="geometry" />
        </mxCell>
        <mxCell id="TDVyNpl9th57YyGW8d3d-14" value="" style="shape=module;jettyWidth=8;jettyHeight=4;" vertex="1" parent="TDVyNpl9th57YyGW8d3d-13">
          <mxGeometry x="1" width="20" height="20" relative="1" as="geometry">
            <mxPoint x="-27" y="7" as="offset" />
          </mxGeometry>
        </mxCell>
        <mxCell id="TDVyNpl9th57YyGW8d3d-15" value="«component»&lt;br&gt;&lt;b&gt;MySQL&lt;/b&gt;" style="html=1;dropTarget=0;whiteSpace=wrap;" vertex="1" parent="1">
          <mxGeometry x="420" y="560" width="220" height="50" as="geometry" />
        </mxCell>
        <mxCell id="TDVyNpl9th57YyGW8d3d-16" value="" style="shape=module;jettyWidth=8;jettyHeight=4;" vertex="1" parent="TDVyNpl9th57YyGW8d3d-15">
          <mxGeometry x="1" width="20" height="20" relative="1" as="geometry">
            <mxPoint x="-27" y="7" as="offset" />
          </mxGeometry>
        </mxCell>
        <mxCell id="TDVyNpl9th57YyGW8d3d-19" value="&lt;div&gt;&lt;br&gt;&lt;/div&gt;&lt;div&gt;&lt;br&gt;&lt;/div&gt;&amp;lt;&amp;lt;device&amp;gt;&amp;gt;&lt;div&gt;Firewall&lt;/div&gt;" style="verticalAlign=top;align=center;spacingTop=8;spacingLeft=2;spacingRight=12;shape=cube;size=10;direction=south;fontStyle=4;html=1;rounded=0;shadow=0;comic=0;labelBackgroundColor=none;strokeWidth=1;fontFamily=Verdana;fontSize=12" vertex="1" parent="1">
          <mxGeometry x="415" y="130" width="175" height="110" as="geometry" />
        </mxCell>
        <mxCell id="TDVyNpl9th57YyGW8d3d-20" value="" style="endArrow=none;html=1;rounded=0;fontSize=12;startSize=8;endSize=8;curved=1;entryX=0.457;entryY=1.005;entryDx=0;entryDy=0;entryPerimeter=0;" edge="1" parent="1" target="TDVyNpl9th57YyGW8d3d-5">
          <mxGeometry width="50" height="50" relative="1" as="geometry">
            <mxPoint x="590" y="190.1" as="sourcePoint" />
            <mxPoint x="668.6800000000001" y="190.00000000000009" as="targetPoint" />
          </mxGeometry>
        </mxCell>
        <mxCell id="TDVyNpl9th57YyGW8d3d-21" value="" style="endArrow=none;html=1;rounded=0;fontSize=12;startSize=8;endSize=8;curved=1;entryX=0.457;entryY=1.005;entryDx=0;entryDy=0;entryPerimeter=0;" edge="1" parent="1">
          <mxGeometry width="50" height="50" relative="1" as="geometry">
            <mxPoint x="690" y="490" as="sourcePoint" />
            <mxPoint x="918" y="350" as="targetPoint" />
          </mxGeometry>
        </mxCell>
      </root>
    </mxGraphModel>
  </diagram>
</mxfile>
